<svg width="1200" height="1082" viewBox="0 0 1200 1082" fill="none" xmlns="http://www.w3.org/2000/svg">
<g id="cities list">
<ellipse id="Ellipse 1" cx="600.011" cy="541" rx="599.989" ry="541" fill="#2C6FD1" fill-opacity="0.24"/>
<path id="Polygon 4" d="M494.959 108.625C500.8 113.892 497.9 123.652 489.921 125.579L421.534 142.102C414.06 143.908 407.65 137.399 409.795 130.18L428.119 68.5168C430.265 61.2983 439.425 58.5507 444.897 63.4846L494.959 108.625Z" fill="#FF768E" fill-opacity="0.24"/>
<path id="Polygon 3" d="M459.881 470.82C465.466 465.785 474.275 467.913 476.319 474.792L494.643 536.454C496.833 543.825 489.71 551.022 482.055 549.172L413.669 532.65C406.014 530.8 403.836 521.356 409.819 515.96L459.881 470.82Z" fill="#FF768E" fill-opacity="0.24"/>
<path id="Polygon 6" d="M463.911 827.75C460.549 834.411 451.569 835.522 447.139 829.824L407.421 778.738C402.665 772.622 406.666 763.377 414.486 762.41L484.353 753.769C492.173 752.802 497.669 760.872 494.059 768.023L463.911 827.75Z" fill="#FF768E" fill-opacity="0.24"/>
</g>
</svg>
