<svg width="920" height="920" viewBox="0 0 920 920" fill="none" xmlns="http://www.w3.org/2000/svg">
<g id="cities list">
<circle id="circle" cx="460" cy="460" r="460" fill="#2C6FD1" fill-opacity="0.24"/>
<path id="Polygon 3" d="M209.134 198.546C214.577 203.99 212.087 213.284 204.651 215.277L158.643 227.605C151.207 229.597 144.403 222.793 146.395 215.357L158.723 169.349C160.716 161.913 170.01 159.423 175.454 164.866L209.134 198.546Z" fill="#FF768E" fill-opacity="0.24"/>
<path id="triangle3" d="M593.75 550.684C593.75 542.986 602.083 538.175 608.75 542.024L650 565.84C656.667 569.689 656.667 579.311 650 583.16L608.75 606.976C602.083 610.825 593.75 606.014 593.75 598.316L593.75 550.684Z" fill="#FF768E" fill-opacity="0.24"/>
<path id="triangle2" d="M624.75 220.684C624.75 212.986 633.083 208.175 639.75 212.024L681 235.84C687.667 239.689 687.667 249.311 681 253.16L639.75 276.976C633.083 280.825 624.75 276.014 624.75 268.316L624.75 220.684Z" fill="#FF768E" fill-opacity="0.24"/>
<path id="triangle1" d="M143.547 570.866C148.99 565.423 158.284 567.913 160.277 575.349L172.605 621.357C174.597 628.793 167.793 635.597 160.357 633.605L114.349 621.277C106.913 619.284 104.423 609.99 109.866 604.546L143.547 570.866Z" fill="#FF768E" fill-opacity="0.24"/>
</g>
</svg>
