<svg width="29" height="29" viewBox="0 0 29 29" fill="none" xmlns="http://www.w3.org/2000/svg">
<g id="database" clip-path="url(#clip0_8_51)">
<path id="data" d="M23.0166 4.08992H6.65695C6.01425 4.08992 5.4884 4.61577 5.4884 5.25847V8.76412C5.4884 9.40682 6.01425 9.93267 6.65695 9.93267H23.0166C23.6593 9.93267 24.1852 9.40682 24.1852 8.76412V5.25847C24.1852 4.61577 23.6593 4.08992 23.0166 4.08992ZM23.0166 11.1012H6.65695C6.01425 11.1012 5.4884 11.6271 5.4884 12.2698V15.7754C5.4884 16.4181 6.01425 16.944 6.65695 16.944H23.0166C23.6593 16.944 24.1852 16.4181 24.1852 15.7754V12.2698C24.1852 11.6271 23.6593 11.1012 23.0166 11.1012ZM23.0166 18.1125H6.65695C6.01425 18.1125 5.4884 18.6384 5.4884 19.2811V22.7867C5.4884 23.4294 6.01425 23.9553 6.65695 23.9553H23.0166C23.6593 23.9553 24.1852 23.4294 24.1852 22.7867V19.2811C24.1852 18.6384 23.6593 18.1125 23.0166 18.1125Z" fill="#A7AABD"/>
<path id="Plus" d="M23.0167 28.0452C26.2436 28.0452 28.8594 25.4293 28.8594 22.2024C28.8594 18.9756 26.2436 16.3597 23.0167 16.3597C19.7898 16.3597 17.174 18.9756 17.174 22.2024C17.174 25.4293 19.7898 28.0452 23.0167 28.0452Z" fill="#43A047"/>
<g id="plus">
<path id="verticle" d="M21.8481 18.6968H24.1852V25.7081H21.8481V18.6968Z" fill="white"/>
<path id="horizental" d="M19.511 21.0339H26.5223V23.371H19.511V21.0339Z" fill="white"/>
</g>
</g>
<defs>
<clipPath id="clip0_8_51">
<rect width="28.0452" height="28.0452" fill="white" transform="translate(0.814209)"/>
</clipPath>
</defs>
</svg>
