<svg width="36" height="60" viewBox="0 0 36 60" fill="none" xmlns="http://www.w3.org/2000/svg">
<g id="mouse">
<rect id="oval" x="2" y="2" width="32" height="56" rx="16" fill="white" stroke="#434656" stroke-width="4"/>
<path id="botom" d="M17.2929 30.7071C17.6834 31.0976 18.3166 31.0976 18.7071 30.7071L25.0711 24.3431C25.4616 23.9526 25.4616 23.3195 25.0711 22.9289C24.6805 22.5384 24.0474 22.5384 23.6569 22.9289L18 28.5858L12.3431 22.9289C11.9526 22.5384 11.3195 22.5384 10.9289 22.9289C10.5384 23.3195 10.5384 23.9526 10.9289 24.3431L17.2929 30.7071ZM17 20L17 30L19 30L19 20L17 20Z" fill="#434656"/>
<path id="top" d="M18.7071 9.29289C18.3166 8.90237 17.6834 8.90237 17.2929 9.29289L10.9289 15.6569C10.5384 16.0474 10.5384 16.6805 10.9289 17.0711C11.3195 17.4616 11.9526 17.4616 12.3431 17.0711L18 11.4142L23.6569 17.0711C24.0474 17.4616 24.6805 17.4616 25.0711 17.0711C25.4616 16.6805 25.4616 16.0474 25.0711 15.6569L18.7071 9.29289ZM19 20L19 10L17 10L17 20L19 20Z" fill="#434656"/>
</g>
</svg>
